<svg width="66" height="102" viewBox="0 0 66 102" fill="none" xmlns="http://www.w3.org/2000/svg">
<g opacity="0.1" clip-path="url(#clip0_7_8644)">
<path d="M28.7848 73.6886C28.6327 73.0476 28.2039 72.6296 27.6713 72.3091C27.208 72.0234 26.6823 71.905 26.1498 71.8004C24.9257 71.5635 23.6808 71.4869 22.4359 71.3894C19.7109 71.1734 16.9791 70.9922 14.2542 70.7693C13.1338 70.6787 12.0203 70.5254 10.9414 70.184C10.1114 69.9262 9.35759 69.536 8.70748 68.9577C7.64241 68.0171 7.31044 66.8744 7.74615 65.4949C8.25102 63.8784 9.30918 62.7357 10.6993 61.8718C12.7603 60.5898 15.0218 59.8442 17.3941 59.3774C20.942 58.6807 24.5245 58.5692 28.1209 58.5831C33.5984 58.604 38.986 59.2868 44.2768 60.7152C45.577 61.0635 46.8565 61.4677 48.0461 62.1226C48.6063 62.4292 49.1457 62.7706 49.6229 63.1956C51.5802 64.9235 51.8637 67.6827 50.2661 69.7659C49.5053 70.7553 48.5233 71.4799 47.4513 72.0931C45.8606 72.9988 44.1177 73.4935 42.3472 73.8558C38.7301 74.6014 35.0646 75.0055 31.3714 75.1727C31.2953 75.1727 31.2262 75.1797 31.1501 75.1727C30.8458 75.1518 30.7075 75.2493 30.7628 75.5977C30.8251 76.0088 30.8251 76.4338 30.8666 76.8449C31.0671 78.8376 30.8942 80.8303 30.7697 82.816C30.6314 84.9272 30.4723 87.0383 30.3617 89.1495C30.1127 93.9919 30.1404 98.8413 30.0989 103.691C30.0989 103.914 30.1058 104.137 30.0712 104.353C30.002 104.736 29.6908 104.987 29.3519 104.959C29.0269 104.938 28.7986 104.708 28.7364 104.332C28.7157 104.213 28.7157 104.088 28.7157 103.962C28.771 99.1896 28.6949 94.4099 28.937 89.6372C29.0684 87.0801 29.2828 84.53 29.4349 81.9799C29.5525 79.8897 29.6286 77.7994 29.3727 75.7092C29.3312 75.3957 29.3035 75.1518 28.8816 75.1379C26.7584 75.0961 24.6352 75.0682 22.5258 75.4653C20.3403 75.8834 18.5975 77.033 17.1797 78.7192C15.5751 80.6352 14.4063 82.823 13.3274 85.0596C11.4877 88.8638 9.99387 92.8283 8.25102 96.6744C7.45567 98.4441 6.70182 100.235 5.92722 102.011C5.74741 102.43 5.47076 102.583 5.13879 102.471C4.82757 102.367 4.65467 102.018 4.75149 101.614C4.82065 101.329 4.94514 101.057 5.04888 100.785C6.522 96.9809 8.25794 93.2882 9.81405 89.5118C10.8376 87.0314 11.9442 84.5927 13.2029 82.2308C13.9568 80.8164 14.8074 79.4716 15.7895 78.2105C17.8782 75.5071 20.6239 74.0788 24.0058 73.821C25.3959 73.7165 26.7861 73.6468 28.1762 73.7026C28.3699 73.7095 28.5635 73.7444 28.7848 73.6399V73.6886ZM27.6713 59.9975C23.0376 59.9975 20.5824 60.1926 17.1451 60.8754C15.1187 61.2795 13.196 61.9763 11.4255 63.0702C10.4296 63.6903 9.60657 64.4776 9.17777 65.6133C8.72823 66.7908 8.94954 67.4945 9.99387 68.2052C10.803 68.7556 11.7229 68.9995 12.6635 69.1528C14.766 69.4942 16.8892 69.5569 19.0124 69.7381C21.274 69.9262 23.5494 70.0168 25.804 70.3164C27.8442 70.5881 29.5248 71.3406 30.2649 73.4657C30.3548 73.7165 30.5346 73.7931 30.7766 73.7792C31.0187 73.7653 31.2677 73.7653 31.5097 73.7583C33.9304 73.6956 36.3302 73.396 38.7301 73.0755C40.7427 72.8038 42.7345 72.4345 44.6641 71.7935C46.241 71.2709 47.6795 70.5115 48.8414 69.2921C49.8373 68.2401 50.1693 67.0138 49.6782 65.6203C49.367 64.7424 48.7031 64.1641 47.9423 63.6903C46.8357 62.9935 45.6185 62.5546 44.3667 62.2062C38.7993 60.6525 33.1212 59.9487 27.6713 59.9906V59.9975Z" fill="white"/>
<path d="M62.0369 46.508C61.2415 45.4211 60.3286 44.4666 59.2428 43.6932C56.2205 41.5402 52.9561 39.9307 49.2767 39.241C46.5795 38.7393 43.896 38.5651 41.2195 39.3315C41.0535 39.3803 40.8876 39.4291 40.7216 39.436C40.4311 39.443 40.189 39.3106 40.0853 39.0319C39.9816 38.7532 40.0507 38.4954 40.2651 38.2864C40.4311 38.1262 40.6317 38.0495 40.8461 37.9938C42.6788 37.4991 44.5323 37.2831 46.4342 37.4364C51.3861 37.8266 55.8401 39.5406 59.8791 42.4251C61.3315 43.4632 62.5003 44.7731 63.5792 46.1875C63.6552 46.2851 63.7244 46.3896 63.7797 46.5011C64.1186 47.1769 63.8696 47.7413 63.1365 47.8876C62.4933 48.013 61.8363 48.0966 61.1793 48.1733C58.399 48.4938 55.6188 48.4589 52.8385 48.2011C50.2657 47.9642 47.769 47.3929 45.4038 46.3548C42.2915 44.9891 39.6634 43.0104 37.7615 40.1258C37.6024 39.882 37.4503 39.7287 37.1252 39.7496C35.7766 39.8332 34.4695 40.1189 33.1762 40.509C32.8649 40.6066 32.8649 40.8365 32.8442 41.0804C32.7197 42.3275 32.5883 43.5747 32.443 44.8219C32.3808 45.3863 32.2909 45.9437 32.1872 46.5011C32.1249 46.8425 32.2079 46.9818 32.5814 47.0097C34.0683 47.1142 35.5345 47.372 36.9869 47.7274C37.5817 47.8737 38.1626 48.0548 38.7228 48.3057C40.7008 49.2045 41.7728 50.6955 41.7313 52.9251C41.7106 54.2838 41.4893 55.6215 41.2403 56.9523C40.8253 59.1749 40.4311 61.4045 39.7672 63.5714C39.532 64.3239 39.2692 65.0625 38.8612 65.7453C38.1626 66.8949 37.1598 67.6195 35.8112 67.6404C32.6367 67.6892 29.4553 67.724 26.3016 67.2224C25.7206 67.1318 25.1604 66.9715 24.6141 66.7346C23.5213 66.2678 22.8505 65.4526 22.6015 64.2821C22.3663 63.1464 22.2557 61.9968 22.0966 60.8541C21.6886 57.9068 21.3082 54.9526 21.1284 51.9775C21.1076 51.6361 21.0869 51.2877 21.1076 50.9463C21.1353 50.5004 21.3635 50.2496 21.7093 50.2565C22.0482 50.2565 22.2833 50.4934 22.3179 50.9463C22.4217 52.3468 22.5738 53.7403 22.7536 55.1338C23.1271 57.9905 23.4729 60.8471 23.8948 63.6899C24.0469 64.721 24.6002 65.3272 25.5616 65.6059C26.3638 65.8428 27.1799 65.9822 28.0098 66.0518C30.3475 66.2609 32.6989 66.2191 35.0435 66.2678C35.1403 66.2678 35.2371 66.2678 35.334 66.2678C36.5858 66.2957 37.4088 65.6826 37.9067 64.5608C38.4877 63.2509 38.8266 61.8644 39.124 60.4639C39.5735 58.3458 40.0231 56.2277 40.2582 54.0747C40.2997 53.7055 40.3343 53.3362 40.3343 52.9739C40.3481 51.3156 39.6427 50.2356 38.1281 49.5737C37.2013 49.1696 36.2192 48.9885 35.2371 48.7794C34.2758 48.5774 33.3006 48.5077 32.3324 48.3753C31.9382 48.3196 31.8275 48.4868 31.7514 48.8282C31.6546 49.309 31.5232 49.7828 31.378 50.2565C31.1843 50.8697 30.8731 51.4271 30.4443 51.9148C29.8426 52.6116 29.1026 53.0435 28.1689 53.1202C27.3044 53.1968 26.4537 53.1272 25.6376 52.8624C24.8769 52.6116 24.2337 52.1726 23.8533 51.4271C23.3277 50.4029 23.5421 49.302 24.4204 48.5634C24.9529 48.1175 25.5685 47.8179 26.2186 47.6019C27.5257 47.17 28.8536 46.8634 30.2368 46.8703C30.548 46.8703 30.7348 46.8076 30.7901 46.4523C31.0391 44.801 31.2673 43.1427 31.3918 41.4705C31.3987 41.373 31.3849 41.2755 31.3711 41.157C31.0529 41.0943 30.797 41.2615 30.5273 41.3451C28.5908 41.9583 26.6336 42.4599 24.5933 42.6202C22.6983 42.7665 20.8379 42.5644 18.9775 42.2579C16.2387 41.798 13.6106 41.0037 11.1139 39.7565C8.96301 38.6836 7.1095 37.2204 5.44273 35.4924C3.72063 33.7088 2.15068 31.7857 0.739806 29.7443C0.476996 29.3611 0.214185 28.9709 0.0689478 28.518C-0.193863 27.7098 0.165773 27.1245 1.00953 27.0688C4.55056 26.8528 8.09158 26.7483 11.6257 27.1384C14.2123 27.4241 16.7297 27.9258 19.1504 28.943C22.9888 30.5595 26.0872 33.0329 28.2865 36.6072C28.3487 36.7118 28.4248 36.8093 28.4801 36.9208C28.66 37.2831 28.9089 37.3946 29.317 37.2901C29.8841 37.1507 30.4651 37.0462 31.046 36.9696C31.4471 36.9208 31.5716 36.7327 31.5578 36.3355C31.4955 34.8654 31.1843 33.4649 30.4858 32.155C29.7458 30.7824 28.7706 29.584 27.7885 28.3926C25.6653 25.8076 23.7703 23.0694 22.0482 20.1988C20.0979 16.938 18.9291 13.4404 18.4795 9.66398C18.1821 7.19053 17.9331 4.72404 17.9193 2.22968C17.9193 1.98581 17.8986 1.73498 17.9816 1.49809C18.1683 0.968562 18.6662 0.766505 19.1573 1.03127C19.2818 1.10094 19.3993 1.19849 19.51 1.28907C23.0165 4.26418 25.6515 7.87334 27.3528 12.1723C28.3487 14.6806 28.9504 17.2794 29.3447 19.941C29.3861 20.2337 29.4 20.5263 29.5729 20.8677C29.7942 19.8992 29.9878 18.9934 30.2092 18.0946C31.4195 13.2313 33.4528 8.77214 36.6757 4.90519C38.218 3.05881 40.03 1.5399 42.1186 0.355423C42.2431 0.285748 42.3745 0.209106 42.5059 0.146399C43.1906 -0.160171 43.7162 0.0418864 43.9652 0.75257C44.2004 1.40751 44.2626 2.09729 44.3663 2.77314C45.0234 7.20446 44.4078 11.4546 42.5267 15.5167C41.5999 17.5233 40.3481 19.3 38.8197 20.8886C37.7684 21.9895 36.6411 23.0067 35.5207 24.0379C34.4971 24.9855 33.4597 25.9261 32.5952 27.0409C32.4154 27.2708 32.2632 27.5286 32.0834 27.7655C31.9174 27.9954 31.9313 28.1905 32.0834 28.4344C32.7612 29.5143 33.4182 30.6082 34.0891 31.7021C34.1375 31.7788 34.1721 31.8833 34.3173 31.9042C34.5179 31.8275 34.5801 31.5976 34.6908 31.4165C36.6688 28.1696 39.2 25.4244 42.1325 23.0346C45.1824 20.5472 48.7027 19.098 52.5204 18.3385C54.8926 17.8647 57.2994 17.6139 59.6993 17.3212C61.3522 17.1192 62.9844 16.8335 64.6166 16.527C64.7826 16.4921 64.9555 16.4433 65.1215 16.4433C65.8338 16.4433 66.1796 17.0286 65.8338 17.6557C65.7024 17.8926 65.5295 18.1016 65.3704 18.3176C64.7065 19.2303 64.1117 20.1988 63.5515 21.1743C60.0796 27.229 54.9894 31.305 48.516 33.7157C44.2903 35.2904 39.9262 36.3564 35.5553 37.4015C34.8429 37.5688 34.1237 37.722 33.4113 37.8893C33.0033 37.9868 32.7474 38.5372 32.9272 38.9135C33.0102 39.0946 33.1761 39.0319 33.3145 39.0041C33.764 38.8926 34.2136 38.7672 34.6631 38.6696C35.5691 38.4676 36.4959 38.3909 37.4226 38.3282C37.9621 38.2864 38.3563 38.4745 38.6398 38.9623C39.8156 41.0177 41.5238 42.5435 43.488 43.7977C46.0331 45.4281 48.848 46.2851 51.8011 46.6822C55.0378 47.1142 58.2815 47.1491 61.5182 46.7101C61.6565 46.6892 61.8156 46.724 61.9885 46.522L62.0369 46.508ZM63.6622 18.2201C63.4685 18.1225 63.2749 18.1922 63.095 18.227C61.7948 18.4709 60.4877 18.6172 59.1806 18.7914C56.8844 19.098 54.5675 19.3209 52.2991 19.8156C48.9863 20.5402 45.9155 21.8222 43.239 23.9543C40.2789 26.3093 37.7546 29.0615 35.7973 32.3222C35.5968 32.6567 35.4031 33.0051 35.1818 33.3256C34.6354 34.1268 33.9715 34.1199 33.4597 33.3047C33.3421 33.1165 33.2384 32.9214 33.1208 32.7333C32.3531 31.4792 31.6062 30.2041 30.797 28.9709C30.389 28.3508 30.389 27.8491 30.7832 27.222C31.5716 25.9818 32.5468 24.9297 33.598 23.9334C34.8429 22.7489 36.1293 21.6132 37.3396 20.4009C41.9803 15.7396 43.7577 10.0751 43.0661 3.56743C42.997 2.94036 42.9762 2.29935 42.748 1.69318C42.4644 1.69318 42.2777 1.87433 42.0771 1.99975C40.5279 2.96823 39.1585 4.14573 37.9621 5.53226C34.8568 9.14142 32.9064 13.3358 31.6823 17.9135C31.0806 20.15 30.7555 22.4423 30.3751 24.7207C30.3336 24.9924 30.2783 25.2572 30.1538 25.5011C30.0086 25.7867 29.7734 25.947 29.4415 25.9191C29.1441 25.8982 28.9435 25.724 28.8467 25.4453C28.7983 25.306 28.7637 25.1597 28.736 25.0203C28.5908 24.1494 28.4317 23.2784 28.3003 22.4005C27.9753 20.2337 27.6986 18.0598 27.1246 15.9417C25.8175 11.1411 23.5559 6.90486 19.8489 3.5326C19.7175 3.41415 19.6276 3.18422 19.3579 3.2748C19.3579 3.61621 19.344 3.95761 19.3579 4.29902C19.4685 6.661 19.7521 9.00904 20.1463 11.3362C20.5267 13.5867 21.2183 15.7257 22.2972 17.7393C23.4107 19.8226 24.6348 21.8362 25.9904 23.7662C27.3667 25.7171 28.9228 27.5147 30.3613 29.4098C31.5647 30.9915 32.4984 32.7055 32.7888 34.7121C32.8511 35.1232 32.8718 35.5412 32.9203 35.9593C32.9894 36.5376 32.9963 36.5445 33.5358 36.4261C34.0822 36.3076 34.6285 36.1753 35.1749 36.0429C39.5458 34.9978 43.9168 33.9387 48.1356 32.3571C53.0045 30.5246 57.1541 27.6889 60.3494 23.5153C61.5873 21.8919 62.5556 20.0873 63.6345 18.3594C63.6552 18.3246 63.6414 18.2619 63.6483 18.2131L63.6622 18.2201ZM1.68039 28.3995C1.72189 28.7479 1.88096 28.9082 2.00545 29.0824C3.29875 30.9357 4.73729 32.6776 6.27957 34.3219C8.49963 36.6909 11.1208 38.4258 14.1639 39.5336C16.2664 40.3 18.4242 40.7808 20.6304 41.0664C22.6499 41.3312 24.6694 41.3242 26.682 40.9132C28.1205 40.6205 29.5176 40.1885 30.9077 39.7356C31.537 39.5336 31.537 39.5336 31.5509 38.8717C31.5509 38.6905 31.627 38.4815 31.4402 38.3212C30.8662 38.4188 30.2922 38.5163 29.7181 38.6278C28.2727 38.8926 28.0652 38.802 27.256 37.5409C27.1661 37.3946 27.0762 37.2482 26.9794 37.1089C26.1702 35.9035 25.2988 34.7539 24.2268 33.7645C21.82 31.5279 18.9706 30.1205 15.8445 29.2775C13.1196 28.5459 10.3116 28.3508 7.50372 28.2602C5.58105 28.1975 3.65839 28.3577 1.68731 28.4065L1.68039 28.3995ZM27.5603 51.7197C28.7153 51.8591 29.4276 51.2041 29.9118 50.1938C30.1123 49.7688 30.2368 49.3159 30.3336 48.863C30.4512 48.3196 30.4028 48.2569 29.8495 48.2778C28.494 48.3335 27.2007 48.654 25.9627 49.2114C25.7621 49.302 25.5754 49.4205 25.4025 49.5528C24.8492 49.9848 24.8146 50.5701 25.3057 51.0717C25.5546 51.3226 25.859 51.4689 26.1909 51.5664C26.6197 51.6849 27.0485 51.7406 27.5465 51.7197H27.5603Z" fill="white"/>
</g>
<defs>
<clipPath id="clip0_7_8644">
<rect width="66" height="102" fill="white"/>
</clipPath>
</defs>
</svg>
