<svg width="24" height="24" viewBox="0 0 24 24" fill="none" xmlns="http://www.w3.org/2000/svg">
<path fill-rule="evenodd" clip-rule="evenodd" d="M11.9867 1.00006C15.0013 0.9881 17.8562 2.70982 19.1176 5.57965C19.5519 6.5665 19.7142 7.61099 19.7142 8.62281V11.6786C19.7142 12.2584 19.9494 12.8091 20.383 13.2287L21.01 13.836C21.0103 13.8363 21.0107 13.8367 21.011 13.837C21.6405 14.4434 22 15.2687 22 16.1328V16.1404C21.9842 17.8678 20.5385 19.245 18.7885 19.245C18.7412 19.245 18.6945 19.2412 18.6488 19.2337H5.21142C3.45449 19.2337 2 17.8591 2 16.1215C2 15.2574 2.35947 14.4322 2.98894 13.8257C2.98929 13.8254 2.98965 13.8251 2.99001 13.8247L3.61664 13.2176C4.05019 12.7981 4.28571 12.2471 4.28571 11.6674V8.4649C4.28571 4.32922 7.74745 1.00102 11.9867 1.00006ZM18.9083 17.549C19.6823 17.4902 20.2769 16.8656 20.2857 16.129C20.2846 15.7319 20.1189 15.3413 19.8128 15.0467L19.8109 15.0448L19.1827 14.4362C18.4276 13.7056 18 12.7226 18 11.6786V8.62281C18 7.78535 17.8652 6.98056 17.5452 6.25338C16.5668 4.02715 14.3483 2.68159 11.9922 2.69149L11.9886 2.6915C8.66301 2.6915 5.99997 5.2942 5.99997 8.4649V11.6674C5.99997 12.7112 5.57243 13.694 4.81765 14.4246C4.81754 14.4247 4.81776 14.4245 4.81765 14.4246L4.18908 15.0335L4.18713 15.0354C3.88012 15.3309 3.71428 15.7231 3.71428 16.1215C3.71428 16.8872 4.36264 17.5423 5.21142 17.5423H18.8C18.8365 17.5423 18.8727 17.5446 18.9083 17.549Z" fill="#0F1313"/>
<path fill-rule="evenodd" clip-rule="evenodd" d="M9.34863 22.1543C9.34863 21.6872 9.73236 21.3086 10.2058 21.3086H13.7829C14.2563 21.3086 14.64 21.6872 14.64 22.1543C14.64 22.6214 14.2563 23 13.7829 23H10.2058C9.73236 23 9.34863 22.6214 9.34863 22.1543Z" fill="#0F1313"/>
</svg>
