<svg width="12" height="13" viewBox="0 0 12 13" fill="none" xmlns="http://www.w3.org/2000/svg">
<g clip-path="url(#clip0_398_5865)">
<path d="M6 0.5C2.69173 0.5 0 3.19173 0 6.5C0 9.80827 2.69173 12.5 6 12.5C9.30827 12.5 12 9.80827 12 6.5C12 3.19173 9.30827 0.5 6 0.5ZM9.35338 4.92105L5.5188 8.72556C5.29323 8.95113 4.93233 8.96617 4.69173 8.7406L2.66165 6.89098C2.42105 6.66541 2.40602 6.28947 2.61654 6.04887C2.84211 5.80827 3.21805 5.79323 3.45865 6.0188L5.06767 7.49248L8.49624 4.06391C8.73684 3.82331 9.11278 3.82331 9.35338 4.06391C9.59399 4.30451 9.59399 4.68045 9.35338 4.92105Z" fill="#39A31E"/>
</g>
<defs>
<clipPath id="clip0_398_5865">
<rect width="12" height="12" fill="white" transform="translate(0 0.5)"/>
</clipPath>
</defs>
</svg>
