<svg width="50" height="50" viewBox="0 0 50 50" fill="none" xmlns="http://www.w3.org/2000/svg">
<path d="M37.8315 50C38.5279 50 39.0941 49.429 39.0941 48.7266V36.6035H40.0528C41.6803 36.6015 42.998 35.2724 43 33.6329V30.4435C43 27.8172 40.8892 25.6902 38.2852 25.6902H36.5157L37.7289 14.1921C38.0899 10.5629 36.9122 6.94957 34.4857 4.24592C32.0613 1.54197 28.6149 0 24.999 0C21.3831 0 17.9369 1.54197 15.5123 4.24592C13.0858 6.94988 11.9081 10.5629 12.2691 14.1921L13.4823 25.6902H11.7128C9.11081 25.6902 7 27.8172 7 30.4435V33.6329C7.00197 35.2724 8.31976 36.6015 9.94525 36.6035H10.904L10.9059 48.7266C10.9059 49.429 11.4701 50 12.1685 50C12.8649 50 13.431 49.429 13.431 48.7266V43.301H36.5688V48.7266C36.5688 49.429 37.1332 50 37.8315 50ZM14.7786 13.9194C14.4728 10.9966 15.4098 8.07968 17.3589 5.89506C19.3079 3.71044 22.0855 2.46288 24.9993 2.46288C27.913 2.46288 30.6908 3.71039 32.6397 5.89506C34.5885 8.07973 35.5257 10.9967 35.22 13.9194L33.9772 25.6865L16.0213 25.6885L14.7786 13.9194ZM9.52336 33.6329V30.4435C9.52336 29.2239 10.5038 28.237 11.7131 28.237H38.2855C39.4928 28.237 40.4732 29.2239 40.4732 30.4435V33.6329C40.4732 33.7444 40.4278 33.8518 40.3489 33.9314C40.27 34.011 40.1635 34.0567 40.053 34.0567H9.94549C9.71271 34.0567 9.52336 33.8657 9.52336 33.6329ZM13.4294 40.7639V36.6035H36.5692V40.7539L13.4294 40.7639Z" fill="#262A2B"/>
</svg>
