<svg width="60" height="60" viewBox="0 0 60 60" fill="none" xmlns="http://www.w3.org/2000/svg">
<path d="M30 15.625C31.0355 15.625 31.875 16.4645 31.875 17.5V32.5C31.875 33.5355 31.0355 34.375 30 34.375C28.9645 34.375 28.125 33.5355 28.125 32.5V17.5C28.125 16.4645 28.9645 15.625 30 15.625Z" fill="#E54747"/>
<path d="M30 42.5C31.3807 42.5 32.5 41.3807 32.5 40C32.5 38.6193 31.3807 37.5 30 37.5C28.6193 37.5 27.5 38.6193 27.5 40C27.5 41.3807 28.6193 42.5 30 42.5Z" fill="#E54747"/>
<path fill-rule="evenodd" clip-rule="evenodd" d="M3.125 30C3.125 15.1574 15.1574 3.125 30 3.125C44.8428 3.125 56.875 15.1574 56.875 30C56.875 44.8428 44.8428 56.875 30 56.875C15.1574 56.875 3.125 44.8428 3.125 30ZM30 6.875C17.2284 6.875 6.875 17.2284 6.875 30C6.875 42.7715 17.2284 53.125 30 53.125C42.7715 53.125 53.125 42.7715 53.125 30C53.125 17.2284 42.7715 6.875 30 6.875Z" fill="#E54747"/>
</svg>
