<svg width="24" height="24" viewBox="0 0 24 24" fill="none" xmlns="http://www.w3.org/2000/svg">
<path fill-rule="evenodd" clip-rule="evenodd" d="M4.46756 7.01105C3.2901 5.33057 4.47206 3 6.50179 3H17.498C19.5587 3 20.7327 5.39361 19.4925 7.0663L15.5725 12.353C15.1867 12.8733 14.978 13.5071 14.978 14.1586V17.8424C14.978 19.5863 13.5872 21 11.8715 21C10.1558 21 8.76501 19.5863 8.76501 17.8424V14.1035C8.76501 13.4796 8.57367 12.8713 8.21762 12.3631L4.46756 7.01105ZM11.8715 19.6154C12.8349 19.6154 13.6158 18.8216 13.6158 17.8424V14.1586C13.6158 13.2064 13.9207 12.2801 14.4846 11.5196L18.4046 6.23293C18.9683 5.47262 18.4347 4.38462 17.498 4.38462H6.50179C5.57919 4.38462 5.04193 5.44397 5.57714 6.20782L9.3272 11.5599C9.84757 12.3026 10.1272 13.1917 10.1272 14.1035V17.8424C10.1272 18.8216 10.9082 19.6154 11.8715 19.6154Z" fill="#0F1313"/>
</svg>
