<svg width="24" height="24" viewBox="0 0 24 24" fill="none" xmlns="http://www.w3.org/2000/svg">
<path d="M14.9591 4.83638C15.3322 4.44301 15.7462 4.1169 16.2753 4.02834C16.388 4.00948 16.5016 4 16.6156 4C16.7295 4 16.8432 4.00948 16.9559 4.02834C17.485 4.1169 17.899 4.44301 18.272 4.83638C18.6355 5.21971 19.0417 5.75781 19.5338 6.40991L20.8503 8.15421C21.0879 8.46895 21.0376 8.92639 20.738 9.17593C20.4384 9.42548 20.003 9.37264 19.7654 9.05791L18.4751 7.34836C17.9598 6.66568 17.6057 6.19827 17.3079 5.88075V18.303C17.3079 18.7047 16.9979 19.0303 16.6156 19.0303C16.2332 19.0303 15.9233 18.7047 15.9233 18.303V5.88075C15.6255 6.19827 15.2714 6.66567 14.7561 7.34836L13.4658 9.05791C13.2282 9.37264 12.7927 9.42548 12.4932 9.17593C12.1936 8.92639 12.1433 8.46895 12.3808 8.15421L13.6974 6.4099C14.1895 5.75781 14.5957 5.21971 14.9591 4.83638Z" fill="#0F1313"/>
<path d="M8.07693 5.697C8.07693 5.29534 7.76697 4.96973 7.38462 4.96973C7.00227 4.96973 6.69232 5.29534 6.69232 5.697V18.1193C6.39448 17.8017 6.0404 17.3343 5.52512 16.6517L4.2348 14.9421C3.99725 14.6274 3.56181 14.5746 3.26221 14.8241C2.96261 15.0737 2.91231 15.5311 3.14986 15.8458L4.46639 17.5901C4.95856 18.2423 5.36468 18.7803 5.72818 19.1637C6.1012 19.5571 6.51524 19.8831 7.04431 19.9717C7.15703 19.9905 7.27073 20 7.38462 20C7.49851 20 7.61222 19.9905 7.72493 19.9717C8.25401 19.8831 8.66805 19.5571 9.04107 19.1637C9.40457 18.7803 9.81069 18.2422 10.3029 17.5901L11.6194 15.8458C11.857 15.5311 11.8067 15.0737 11.507 14.8241C11.2074 14.5746 10.772 14.6274 10.5344 14.9421L9.24413 16.6517C8.72885 17.3343 8.37477 17.8017 8.07693 18.1193V5.697Z" fill="#0F1313"/>
</svg>
