<svg width="50" height="50" viewBox="0 0 50 50" fill="none" xmlns="http://www.w3.org/2000/svg">
<circle cx="25" cy="25" r="25" fill="#95622D"/>
<path fill-rule="evenodd" clip-rule="evenodd" d="M33.5556 15C34.9056 15 36 16.1193 36 17.5V32.5C36 33.8807 34.9056 35 33.5556 35H16.4444C15.0944 35 14 33.8807 14 32.5V17.5C14 16.1193 15.0944 15 16.4444 15H33.5556ZM28.6667 16.25H33.5556C34.2306 16.25 34.7778 16.8097 34.7778 17.5V32.5C34.7778 33.1904 34.2306 33.75 33.5556 33.75H16.4444C15.7694 33.75 15.2222 33.1904 15.2222 32.5V17.5C15.2222 16.8097 15.7694 16.25 16.4444 16.25H21.3334L21.3333 23.7699L25 22.364L28.6667 23.7699L28.6667 16.25ZM27.4445 16.25H22.5556L22.5556 21.9663L25 21.029L27.4445 21.9663L27.4445 16.25Z" fill="#EEE2CA"/>
</svg>
